<?xml version="1.0" encoding="UTF-8" standalone="no"?>
<!DOCTYPE svg PUBLIC "-//W3C//DTD SVG 1.1//EN"
 "http://www.w3.org/Graphics/SVG/1.1/DTD/svg11.dtd">
<!-- Generated by graphviz version 2.43.0 (0)
 -->
<!-- Title: G Pages: 1 -->
<svg width="1207pt" height="206pt"
 viewBox="0.00 0.00 1207.00 206.00" xmlns="http://www.w3.org/2000/svg" xmlns:xlink="http://www.w3.org/1999/xlink">
<g id="graph0" class="graph" transform="scale(1 1) rotate(0) translate(4 202)">
<title>G</title>
<polygon fill="white" stroke="transparent" points="-4,4 -4,-202 1203,-202 1203,4 -4,4"/>
<!-- data.aws_subnets.default -->
<g id="node1" class="node">
<title>data.aws_subnets.default</title>
<polygon fill="none" stroke="black" points="479,-90 285,-90 285,-54 479,-54 479,-90"/>
<text text-anchor="middle" x="382" y="-68.3" font-family="sans-serif" font-size="14.00">data.aws_subnets.default</text>
</g>
<!-- data.aws_vpc.default -->
<g id="node2" class="node">
<title>data.aws_vpc.default</title>
<polygon fill="none" stroke="black" points="190,-90 26,-90 26,-54 190,-54 190,-90"/>
<text text-anchor="middle" x="108" y="-68.3" font-family="sans-serif" font-size="14.00">data.aws_vpc.default</text>
</g>
<!-- data.aws_subnets.default&#45;&gt;data.aws_vpc.default -->
<g id="edge1" class="edge">
<title>data.aws_subnets.default&#45;&gt;data.aws_vpc.default</title>
<path fill="none" stroke="black" d="M284.72,-72C257.35,-72 227.62,-72 200.54,-72"/>
<polygon fill="black" stroke="black" points="200.3,-68.5 190.3,-72 200.3,-75.5 200.3,-68.5"/>
</g>
<!-- aws_autoscaling_group.example -->
<g id="node3" class="node">
<title>aws_autoscaling_group.example</title>
<polygon fill="none" stroke="black" points="789,-144 548,-144 548,-108 789,-108 789,-144"/>
<text text-anchor="middle" x="668.5" y="-122.3" font-family="sans-serif" font-size="14.00">aws_autoscaling_group.example</text>
</g>
<!-- aws_autoscaling_group.example&#45;&gt;data.aws_subnets.default -->
<g id="edge2" class="edge">
<title>aws_autoscaling_group.example&#45;&gt;data.aws_subnets.default</title>
<path fill="none" stroke="black" d="M572.37,-107.94C545.32,-102.81 515.71,-97.19 488.11,-91.95"/>
<polygon fill="black" stroke="black" points="488.52,-88.47 478.04,-90.04 487.21,-95.34 488.52,-88.47"/>
</g>
<!-- aws_launch_configuration.example -->
<g id="node5" class="node">
<title>aws_launch_configuration.example</title>
<polygon fill="none" stroke="black" points="512,-144 252,-144 252,-108 512,-108 512,-144"/>
<text text-anchor="middle" x="382" y="-122.3" font-family="sans-serif" font-size="14.00">aws_launch_configuration.example</text>
</g>
<!-- aws_autoscaling_group.example&#45;&gt;aws_launch_configuration.example -->
<g id="edge3" class="edge">
<title>aws_autoscaling_group.example&#45;&gt;aws_launch_configuration.example</title>
<path fill="none" stroke="black" d="M547.67,-126C539.36,-126 530.94,-126 522.53,-126"/>
<polygon fill="black" stroke="black" points="522.3,-122.5 512.3,-126 522.3,-129.5 522.3,-122.5"/>
</g>
<!-- aws_lb_target_group.asg -->
<g id="node9" class="node">
<title>aws_lb_target_group.asg</title>
<polygon fill="none" stroke="black" points="476,-198 288,-198 288,-162 476,-162 476,-198"/>
<text text-anchor="middle" x="382" y="-176.3" font-family="sans-serif" font-size="14.00">aws_lb_target_group.asg</text>
</g>
<!-- aws_autoscaling_group.example&#45;&gt;aws_lb_target_group.asg -->
<g id="edge4" class="edge">
<title>aws_autoscaling_group.example&#45;&gt;aws_lb_target_group.asg</title>
<path fill="none" stroke="black" d="M572.37,-144.06C544.63,-149.32 514.19,-155.1 485.98,-160.45"/>
<polygon fill="black" stroke="black" points="485.28,-157.02 476.11,-162.33 486.58,-163.9 485.28,-157.02"/>
</g>
<!-- aws_instance.example -->
<g id="node4" class="node">
<title>aws_instance.example</title>
<polygon fill="none" stroke="black" points="1193,-198 1020,-198 1020,-162 1193,-162 1193,-198"/>
<text text-anchor="middle" x="1106.5" y="-176.3" font-family="sans-serif" font-size="14.00">aws_instance.example</text>
</g>
<!-- aws_security_group.instance -->
<g id="node11" class="node">
<title>aws_security_group.instance</title>
<polygon fill="none" stroke="black" points="216,-144 0,-144 0,-108 216,-108 216,-144"/>
<text text-anchor="middle" x="108" y="-122.3" font-family="sans-serif" font-size="14.00">aws_security_group.instance</text>
</g>
<!-- aws_launch_configuration.example&#45;&gt;aws_security_group.instance -->
<g id="edge5" class="edge">
<title>aws_launch_configuration.example&#45;&gt;aws_security_group.instance</title>
<path fill="none" stroke="black" d="M251.77,-126C243.29,-126 234.78,-126 226.36,-126"/>
<polygon fill="black" stroke="black" points="226.15,-122.5 216.15,-126 226.15,-129.5 226.15,-122.5"/>
</g>
<!-- aws_lb.example -->
<g id="node6" class="node">
<title>aws_lb.example</title>
<polygon fill="none" stroke="black" points="732,-90 605,-90 605,-54 732,-54 732,-90"/>
<text text-anchor="middle" x="668.5" y="-68.3" font-family="sans-serif" font-size="14.00">aws_lb.example</text>
</g>
<!-- aws_lb.example&#45;&gt;data.aws_subnets.default -->
<g id="edge6" class="edge">
<title>aws_lb.example&#45;&gt;data.aws_subnets.default</title>
<path fill="none" stroke="black" d="M604.71,-72C570.91,-72 528.3,-72 489.49,-72"/>
<polygon fill="black" stroke="black" points="489.19,-68.5 479.19,-72 489.19,-75.5 489.19,-68.5"/>
</g>
<!-- aws_security_group.alb -->
<g id="node10" class="node">
<title>aws_security_group.alb</title>
<polygon fill="none" stroke="black" points="471.5,-36 292.5,-36 292.5,0 471.5,0 471.5,-36"/>
<text text-anchor="middle" x="382" y="-14.3" font-family="sans-serif" font-size="14.00">aws_security_group.alb</text>
</g>
<!-- aws_lb.example&#45;&gt;aws_security_group.alb -->
<g id="edge7" class="edge">
<title>aws_lb.example&#45;&gt;aws_security_group.alb</title>
<path fill="none" stroke="black" d="M604.71,-60.08C568.58,-53.22 522.38,-44.46 481.52,-36.7"/>
<polygon fill="black" stroke="black" points="482,-33.23 471.53,-34.8 480.7,-40.11 482,-33.23"/>
</g>
<!-- aws_lb_listener.http -->
<g id="node7" class="node">
<title>aws_lb_listener.http</title>
<polygon fill="none" stroke="black" points="978,-121 825,-121 825,-85 978,-85 978,-121"/>
<text text-anchor="middle" x="901.5" y="-99.3" font-family="sans-serif" font-size="14.00">aws_lb_listener.http</text>
</g>
<!-- aws_lb_listener.http&#45;&gt;aws_lb.example -->
<g id="edge8" class="edge">
<title>aws_lb_listener.http&#45;&gt;aws_lb.example</title>
<path fill="none" stroke="black" d="M824.86,-92.85C798.26,-89.28 768.44,-85.28 742.1,-81.74"/>
<polygon fill="black" stroke="black" points="742.56,-78.27 732.18,-80.41 741.63,-85.21 742.56,-78.27"/>
</g>
<!-- aws_lb_listener_rule.asg -->
<g id="node8" class="node">
<title>aws_lb_listener_rule.asg</title>
<polygon fill="none" stroke="black" points="1199,-144 1014,-144 1014,-108 1199,-108 1199,-144"/>
<text text-anchor="middle" x="1106.5" y="-122.3" font-family="sans-serif" font-size="14.00">aws_lb_listener_rule.asg</text>
</g>
<!-- aws_lb_listener_rule.asg&#45;&gt;aws_lb_listener.http -->
<g id="edge9" class="edge">
<title>aws_lb_listener_rule.asg&#45;&gt;aws_lb_listener.http</title>
<path fill="none" stroke="black" d="M1013.8,-115.61C1005.36,-114.65 996.83,-113.69 988.44,-112.74"/>
<polygon fill="black" stroke="black" points="988.63,-109.24 978.3,-111.59 987.84,-116.19 988.63,-109.24"/>
</g>
<!-- aws_lb_listener_rule.asg&#45;&gt;aws_lb_target_group.asg -->
<g id="edge10" class="edge">
<title>aws_lb_listener_rule.asg&#45;&gt;aws_lb_target_group.asg</title>
<path fill="none" stroke="black" d="M1013.78,-134.28C950.62,-139.87 864.75,-147.25 789,-153 686.05,-160.81 568.32,-168.51 486.24,-173.67"/>
<polygon fill="black" stroke="black" points="485.92,-170.18 476.16,-174.3 486.36,-177.17 485.92,-170.18"/>
</g>
<!-- aws_lb_target_group.asg&#45;&gt;data.aws_vpc.default -->
<g id="edge11" class="edge">
<title>aws_lb_target_group.asg&#45;&gt;data.aws_vpc.default</title>
<path fill="none" stroke="black" d="M287.92,-169.66C275.19,-165.7 262.8,-160.31 252,-153 228.11,-136.84 239.56,-115.64 216,-99 210.87,-95.37 205.29,-92.23 199.47,-89.51"/>
<polygon fill="black" stroke="black" points="200.72,-86.24 190.15,-85.58 198,-92.69 200.72,-86.24"/>
</g>
</g>
</svg>
